<?xml version="1.0" ?><!DOCTYPE svg  PUBLIC '-//W3C//DTD SVG 1.1//EN'  'http://www.w3.org/Graphics/SVG/1.1/DTD/svg11.dtd'><svg enable-background="new 0 0 126 126" id="Layer_1" version="1.1" viewBox="0 0 126 126" xml:space="preserve" xmlns="http://www.w3.org/2000/svg" xmlns:xlink="http://www.w3.org/1999/xlink"><g><g><g><path d="M19.77,85.2625c1.3961-0.2032,14.6508,4.1394,16.0557,10.0774     c1.405,5.9463,12.0088,12.1355,16.524,10.6068s10.4355,0.1061,10.4355,0.1061l3.7288,1.8026l0.8483,0.4064h0.0088     l56.8873-32.8456L60.9908,38.6414L5.7117,70.5594c-1.5463,0.8923-2.8364,2.2177-3.5079,3.8701     C-1.5252,83.5484,18.4888,85.4394,19.77,85.2625z" fill="#F3F6FD"/><polygon fill="#FDFEFF" points="12.2368,66.7918 48.2461,87.4409 56.863,82.4658 20.8534,61.8167 21.3707,61.5181      57.3803,82.1672 84.2563,66.6504 48.2456,46.0004 48.7628,45.7018 84.7736,66.3518 93.3858,61.3793 57.3748,40.7293      57.892,40.4308 121.4045,77.064 120.8872,77.363 93.7933,61.6162 85.181,66.5883 112.2751,82.3351 111.7579,82.6341      84.6637,66.8868 75.9723,71.9051 103.0666,87.6519 102.6984,87.8646 75.6041,72.1178 66.8381,77.1788 93.9326,92.926      93.5691,93.1357 66.4746,77.3884 57.7877,82.4041 84.8825,98.1514 84.3652,98.45 57.2704,82.7027 48.6535,87.6778      75.7485,103.4251 75.2312,103.7236 11.7195,67.0904    "/></g><g><g><g><g><g><g><g><g><g><path d="M68.2674,90.2845c0.3781-0.2677,1.1625-0.8881,1.0466-1.7664             c-0.0689-0.5159,0.0722-1.1167,0.2284-1.5869c0.134-0.3854,0.3619-0.7707,0.6308-1.1559             c0.7523-1.0646,1.2904-4.9173,1.3134-5.1915c0.0478-0.1019,0.1099-0.1422,0.2395-0.5976             c0.0143-0.0555-0.0115-0.0882-0.0998-0.0751l-0.7498-0.5942c-0.0883,0.0131-0.1923,0.0719-0.2168,0.124l-0.0184,0.0392             c0,0,0.097-0.1232-0.3764-0.0776c0.0156-0.1209,0.0261-0.2057,0.0253-0.2416c0.1311-0.1666-0.241,0.27-0.1291,0.1067             c0.0362-0.0521-0.1824-0.2163-0.2764-0.2163l-1.0802,1.6604c-0.0983-0.0032-0.2004,0.0392-0.225,0.0915l-0.0322,0.0686             c0,0-1.8299-0.4647-2.6619-0.2557c-0.8276,0.2122-0.3598,1.1919,0.1127,1.1984             c0.4181,0.0097,1.3384,0.4863,1.8552,0.6985c-0.0281,0.0848-0.0925,0.2221-0.1855,0.3951             c-0.5287,0.2384-0.467,0.382-0.2195,0.405c-0.598,1.058-1.0706,1.9169-1.5692,2.4294             c-2.5065,2.5103-2.4506,4.153-4.2697,6.8931c-0.1075,0.1665-0.2034,0.3331-0.2816,0.4997             c-2.1775,0.4129-6.3287,1.4414-8.1728,2.6644c0.0143,0.0196,0.0301,0.0359,0.0459,0.0523             c-0.547,0.036-2.0288,0.6088-1.2362,0.5322c-0.3606,0.1329-0.7192,0.4002-0.2222,0.2483             c-0.0674,0.0216-0.2847,0.0861-0.2673,0.1567c-0.0177,0.0751,0.349-0.0556,0.4406-0.0882             c-0.5028,0.2273-0.3764,0.3974,0.5264-0.0458c0.4118-0.2133,0.5564-0.122,0.4549-0.0686             c-0.2594,0.1274-0.3335,0.2352-0.3348,0.3004c-0.1455,0.3099,0.9897-0.4573,1.1322-0.7608             c0.0513,0.0033,0.1057,0,0.1644,0c2.3705-0.981,4.9677-1.4724,7.5026-1.7371c0.5258,0.2813,0.6971,0.3355,0.788,0.4474             c-0.3025,0.0816-0.6183,0.1665-0.9431,0.258c-0.0058,0-0.0058,0-0.0058,0c-0.0666,0.0293-2.6944,0.8619-3.8445,1.711             c0.0202,0.0196,0.0344,0.0392,0.0561,0.0555c-0.3415,0.0304-1.7958,0.4669-1.5484,0.5094             c0.1959,0.0224,0.406-0.0023,0.6926-0.1371c0.1003-0.0443,0.2546,0.0409-0.1839,0.2417             c-0.4756,0.2251-0.6051,0.3884-0.6156,0.3983c0.1-0.0013,0.0621,0.0871,0.4572-0.111             c-0.4958,0.3446-0.1073,0.2441,0.0546,0.1338c-0.2619,0.2358,0.3487-0.0183,0.5205-0.1207             c-0.0941,0.1221-0.0808,0.1842,0.1524,0.088c0.8108-0.3364,0.8874-0.6347,0.9876-0.728c0.0572,0.0032,0.1174,0,0.1761,0             c0.7198-0.3202,1.3909-0.5617,2.1453-0.7805c-0.2122,0.2645-0.3926,0.5486-0.3528,0.6889             c-0.9442,0.8084,4.2605,1.3423,4.413-0.8587c0,0,0.0317-0.1926,0.0691-0.3723c0.0225-0.0979-0.0152-0.1926-0.1033-0.2677             l0.0478-0.0392c0.6722-0.0853,2.1191-0.1608,2.2885-0.8229c0.1597-0.2025,0.2749-0.4605,0.321-0.7837             c0.2236-1.489,0.6372-2.3577,0.9442-3.0238C68.0332,90.5458,68.0965,90.611,68.2674,90.2845z" fill="#E1E9F4"/></g></g></g></g></g></g></g><g><g><g><g><g enable-background="new    "><path d="M87.3543,63.93c0,0.1673-0.1138,0.3412-0.3347,0.4752L54.3891,83.2406           c-0.1673,0.0935-0.3681,0.1405-0.5823,0.1673l-5.3347,0.5687l-3.0188,2.6574c-0.2744,0.2409-0.7564,0.3347-1.0843,0.2141           l-8.5141-3.3199c-0.3213-0.1203-0.3614-0.4151-0.087-0.6491l3.0054-2.6506l-2.7845-6.7405l-3.8219-2.2221           c-0.2209-0.1271-0.3347-0.2945-0.3347-0.4687l-0.0067-2.4028c0,0.1742,0.1138,0.3481,0.3414,0.4752l9.9732,5.7966           l1.6935,0.3278l0.8367-0.7161l1.7537,1.0174l6.4793,0.7563l-0.0536,2.9718c0.4485,0.2144,1.1111,0.201,1.5328-0.0402           l4.585-2.6506l-1.5127,2.7378l29.5516-17.0683c0.2276-0.1271,0.3414-0.2945,0.3414-0.4687L87.3543,63.93z" fill="#E1E9F4"/><g><path d="M31.8256,66.5368l0.0084,2.3991c0,0.1723,0.1134,0.3403,0.3361,0.4706l20.6002,11.9744            c0.4454,0.2562,1.168,0.2562,1.6176,0l32.6292-18.8397c0.2227-0.1303,0.3361-0.3026,0.3361-0.4706l-0.0084-2.3991            c0,0.1721-0.1092,0.3404-0.3361,0.4706L54.3796,78.9818c-0.4454,0.2605-1.1722,0.2562-1.6134,0L32.166,67.0117            C31.9391,66.8812,31.8256,66.7091,31.8256,66.5368z" fill="#9EB5DF"/></g><g><path d="M31.8341,68.5053c0,0.1723,0.1134,0.3403,0.3361,0.4706l20.6002,11.9744            c0.4454,0.2562,1.168,0.2562,1.6176,0l32.6292-18.8397c0.2188-0.128,0.3308-0.2967,0.3347-0.4618l0.0015,0.4216            c0,0.168-0.1134,0.3403-0.3361,0.4706L54.388,81.3808c-0.4496,0.2562-1.1722,0.2562-1.6176,0L32.1702,69.4064            c-0.2227-0.1303-0.3361-0.2983-0.3361-0.4706l-0.0084-2.3991c0,0.0033,0.0015,0.0064,0.0015,0.0094L31.8341,68.5053z" fill="#83A1CC"/></g><g><path d="M32.1614,66.0695c-0.448,0.2586-0.445,0.6799,0.0028,0.9401l20.6012,11.9721            c0.4425,0.2571,1.1669,0.2586,1.6149,0l32.6305-18.8392c0.4453-0.2571,0.4478-0.6783,0.0053-0.9354L66.4149,47.235            c-0.4478-0.2602-1.1777-0.2618-1.623-0.0047L32.1614,66.0695z" fill="#DEE7F8"/></g></g></g><g><g enable-background="new    "><g><path d="M41.3939,70.5298c-0.4882,0.2819-0.4881,0.7388-0.003,1.0207l3.5578,2.0676            c0.4851,0.2819,1.2739,0.2835,1.7621,0.0016c0.4882-0.2819,0.4908-0.7403,0.0057-1.0222l-3.5578-2.0676            C42.6735,70.2479,41.8821,70.2479,41.3939,70.5298z" fill="#B6CBEA"/></g><g><path d="M35.9473,64.838c-0.4051,0.2339-0.4152,0.6102-0.0021,0.8503l19.1062,11.1033            c0.4024,0.2338,1.0601,0.2338,1.4652,0L85.429,60.099c0.4051-0.2339,0.4072-0.6149,0.0048-0.8487l-6.9586-4.0439            c-0.4771-0.2773-1.11-0.4337-1.7834-0.4833c-0.6414-0.0464-1.4022-0.2772-1.7567-0.4833            c-0.3544-0.206-0.7503-0.6474-0.8258-1.0175c-0.0861-0.3919-0.3513-0.7573-0.8311-1.0361l-6.9505-4.0392            c-0.4131-0.2401-1.0629-0.2354-1.4679-0.0016L35.9473,64.838z" fill="#1E72C6"/></g></g></g></g><g><g><g><g><path d="M53.5137,43.9103c-0.463,0.2673-0.8363,0.9139-0.8348,1.4437l0.043,16.9303            c0.0015,0.5321,0.3773,0.7462,0.8403,0.4789l9.7437-5.6255c0.463-0.2673,0.8363-0.9139,0.8348-1.446l-0.043-16.9303            c-0.0015-0.5298-0.3773-0.7439-0.8403-0.4766L53.5137,43.9103z" fill="#DEE7F8"/></g><g><g><polygon fill="#3887E5" points="53.9252,47.5479 53.9272,48.2723 62.8842,43.101 62.8821,42.3766            "/></g><g><polygon fill="#3887E5" points="53.9201,45.7615 53.9222,46.486 62.8791,41.3148 62.8771,40.5902            "/></g><g><polygon fill="#3887E5" points="53.9201,56.9605 53.922,57.9217 56.9322,56.1838 56.9303,55.2226            "/></g><g><polygon fill="#3887E5" points="53.9303,49.3321 53.9323,50.0566 62.8892,44.8853 62.8872,44.1608            "/></g><g><polygon fill="#3887E5" points="53.9353,52.9078 53.9374,53.6322 59.4105,50.4723 59.4085,49.7479            "/></g><g><polygon fill="#3887E5" points="53.9353,51.1185 53.9374,51.843 62.8943,46.6717 62.8923,45.9472            "/></g></g></g><g><g enable-background="new    "><g opacity="0.5"><polygon fill="#6B9EF9" points="58.7674,46.3952 49.1921,58.7829 58.8043,58.2549 68.3777,47.706            "/></g><g opacity="0.3"><path d="M49.225,70.3455l-4.5551,3.9316l8.0955,4.7048c0.4424,0.2571,1.1669,0.2586,1.6149,0             l4.5893-2.6497l9.4438-17.0609L49.225,70.3455z" fill="#E1E9F4"/></g><g><polygon fill="#DEE7F8" points="58.8043,58.2548 68.3777,47.7062 68.3777,47.706 68.4134,59.2713 49.2278,70.3481              49.1921,58.7828 49.1922,58.7828            "/></g></g></g><path d="M60.5226,56.2897c-1.0034-0.3788-2.1353-0.0085-2.7205,0.8903l-8.5743,13.1682l19.189-11.0788          L60.5226,56.2897z" fill="#B6CBEA"/></g></g></g><g><g><g><path d="M63.3135,52.9699c0.0298-0.0093,0.0679-0.0167,0.1133-0.016          c0.1231-0.0098,0.3089,0.0345,0.5167,0.2577c0.0259,0.0278,0.0699,0.0316,0.0961,0.0038          c0.0506-0.0536,0.0812-0.1766-0.1669-0.4382c-0.3701-0.4042-0.4243-0.6984-0.4267-0.7143c0,0,0.0177-0.0312,0.0717-0.0366          c0.0607-0.0025,0.1736,0.0415,0.3441,0.2539c-0.0092-0.0178-0.2736-0.4251-0.1229-0.4288          c0.0315-0.0044,0.072,0.0084,0.142,0.0465c0,0,0.0363,0.0265,0.114,0.1786c-0.0391-0.0868-0.0899-0.2305-0.029-0.2334          c0.0292,0.0022,0.0697,0.0155,0.1332,0.0733c0.2378,0.1893,0.3107,0.2875,0.3289,0.3233          c-0.0074-0.0696-0.0269-0.2402,0.0497-0.2455c0.0292,0.0022,0.0744,0.0243,0.1445,0.0847          c0.2433,0.2229,0.6367,0.7666,0.6383,1.2514c0.0005,0.1354,0.1401,0.1856,0.241,0.2765l0.083,0.0741l-0.5852,0.3731          c-0.0115-0.0107-0.1158-0.1127-0.2241-0.148c-0.1082-0.0351-0.3373,0.0112-0.8598-0.3603          c-0.3583-0.2488-0.5428-0.41-0.624-0.4872C63.2618,53.0303,63.2745,52.9816,63.3135,52.9699z" fill="#ECB4BF"/><g><path d="M71.1386,58.8438c-1.0336-0.4002-2.2127-1.0176-3.5511-1.7819           c-0.0032-0.0018-0.0032-0.0014-0.0058-0.0041c-0.0489-0.0511-2.288-1.5492-3.04-3.0767           c0.4798-0.6056,0.6575-0.6049,0.905-0.5922c0.9934,1.0042,1.9482,1.5774,3.4228,2.2704           c0.3609,0.1671,1.6561,0.6037,2.9538,0.8756c0.589,0.1234,1.051,0.6671,0.9779,1.2645           C72.7056,58.5812,71.8699,59.1271,71.1386,58.8438z" fill="#FFFFFF"/></g><g><g><path d="M68.3817,79.021c0.6375,0.6093,2.2213,0.6815,2.2213,0.6815v0.0722            c0,0.0961,0.0722,0.2005,0.1564,0.2244l0.8621,0.0883c0.0842,0.0241,0.1243-0.0401,0.1363-0.1363            c0.0441-0.4331,0.0762-0.9622,0.0361-1.1067c-0.0561-0.1844-0.433,0.4411-1.267-0.437            c-0.6696,0.2044-1.5517-0.02-1.9286-0.1443C68.1812,78.1267,67.7402,78.4074,68.3817,79.021z" fill="#2A2A5E"/></g><g><g><g><g><g><g><path d="M69.9238,72.6457c0.1334,0.4671,0.2318,0.9398,0.2676,1.4243                 c0.0947,1.2829,0.2721,3.8431,0.2246,4.4947c-0.0011,0.0146,0.0031,0.027,0.0108,0.0395                 c0.2638,0.4226,0.7549,0.4789,1.3549,0.3566c0,0,0.6776-3.0271,0.4009-5.1481                 c-0.0922-0.6897-0.1403-1.3834-0.0882-2.077c0.0601-0.842,0.2005-1.9245,0.5132-2.8546                 c0.5935-1.7574-0.091-2.9482-0.2946-3.3156c-0.0145-0.0262-0.0427-0.0339-0.0712-0.0248l-3.0062,0.9579                 c-0.0245,0.0078-0.0413,0.0259-0.0433,0.0515C69.1667,66.8915,69.0129,69.4552,69.9238,72.6457z" fill="#3A3A77"/></g><path d="M65.9239,81.3224c0.7337,0.3769,2.6102-0.1122,2.6102-0.1122v0.1241                c0,0.0963,0.0842,0.1725,0.1804,0.1684l0.9863-0.076c0.0962-0.0041,0.1644-0.0883,0.1524-0.1846                c-0.0401-0.3728-0.1403-1.2348-0.1884-1.3632c-0.0634-0.1585-0.3423,0.3334-1.2702-0.2052                c-0.019-0.011-0.0426-0.013-0.0612-0.0013c-0.616,0.3878-1.7344,0.8001-2.1568,0.8159                C65.6994,80.5003,65.1942,80.9414,65.9239,81.3224z" fill="#2A2A5E"/><g><path d="M67.8685,73.8727c0.1283,0.4411,0.2005,0.8902,0.2325,1.3432                 c0.0992,1.2938,0.2731,3.8137,0.226,4.4632c-0.0011,0.0146,0.0031,0.0271,0.0108,0.0396                 c0.2638,0.4226,0.7549,0.4789,1.3549,0.3567c0,0,0.6705-2.999,0.4037-5.1188                 c-0.0933-0.7411-0.134-1.4837-0.0665-2.2275c0.0804-0.8853,0.2529-2.0056,0.6331-2.902                 c0.6941-1.6413,0.2806-3.3044,0.0924-3.7165c-0.0141-0.0309-0.0492-0.0377-0.0804-0.0243l-3.5338,1.5207                 c-0.0215,0.0092-0.0357,0.0263-0.0375,0.0496C67.0782,67.9857,66.9126,70.619,67.8685,73.8727z" fill="#4C4A8B"/></g><g><path d="M71.2564,57.2812c-0.4669-0.539-0.4622-1.2429-0.4602-1.3191                 c0.0002-0.0079-0.0012-0.0106-0.004-0.018l-0.5335-1.4287c-0.0054-0.0144-0.0148-0.0258-0.0285-0.033                 c-0.2376-0.1243-2.5084-1.3001-2.9228-1.0658c-0.4643,0.2626,0.1534,2.4345,0.1534,2.4345                 c0.0465,0.5018,0.2653,0.6744,0.2653,0.6744l1.0587,0.4826c0.0153,0.007,0.0271,0.0197,0.0328,0.0355l0.2931,0.8001                 C69.1106,57.8439,71.7505,57.8518,71.2564,57.2812z" fill="#ECB4BF"/></g></g></g><path d="M66.8974,59.3883c0.0583-0.3185,0.1439-0.6103,0.2606-0.7852              c0.0778-0.1129,0.1711-0.2101,0.2799-0.2918l0.7515-0.5636c0.2419-0.1815,0.4071-0.4461,0.4645-0.7416              c0.0057-0.0295,0.0253-0.0505,0.0552-0.0487c0.2809,0.0163,1.7546,0.0553,2.0884-0.8935l0.1633,0.3924              c0.4705-0.0542,2.302-0.0972,1.7926,2.7531c-0.4744,2.6752-0.4666,4.2349-0.4744,5.4326              c0,0.5945,0.0932,0.4807,0.1127,1.0678c0.0733,2.1583-5.288,1.9467-5.288,1.9467              c-0.0852-0.9394-0.1044-4.6572-0.2647-6.1762C66.7652,60.7844,66.7652,60.0769,66.8974,59.3883z" fill="#FFFFFF"/></g></g></g></g><path d="M59.8144,53.7237c-0.0129,0.0285-0.0248,0.0654-0.0296,0.1106          c-0.0247,0.121-0.0031,0.3108,0.1933,0.544c0.0245,0.0291,0.0229,0.0732-0.0079,0.0959          c-0.0594,0.0438-0.1852,0.0594-0.4149-0.2184c-0.3566-0.4161-0.6421-0.5052-0.6576-0.5096c0,0-0.0331,0.0138-0.0451,0.0667          c-0.0098,0.06,0.0201,0.1774,0.2104,0.3722c-0.0166-0.0113-0.389-0.3228-0.4109-0.1737          c-0.0082,0.0307-0.0004,0.0724,0.029,0.1466c0,0,0.0219,0.0392,0.1635,0.1347c-0.0815-0.0493-0.218-0.117-0.2283-0.0569          c-0.0013,0.0292,0.0069,0.0711,0.0567,0.1411c0.1592,0.2589,0.2479,0.343,0.2812,0.3654          c-0.0682-0.0157-0.2352-0.0556-0.2498,0.0198c-0.0013,0.0292,0.0151,0.0768,0.0667,0.1536          c0.1919,0.2683,0.6841,0.7244,1.1653,0.7844c0.1343,0.0168,0.1673,0.1615,0.2454,0.2725l0.0635,0.0913l0.4414-0.536          c-0.0093-0.0127-0.0979-0.1285-0.1199-0.2403c-0.0218-0.1117,0.0519-0.3335-0.2536-0.8969          c-0.2037-0.3856-0.3414-0.5882-0.4083-0.6781C59.8807,53.6797,59.8308,53.6864,59.8144,53.7237z" fill="#ECB4BF"/><g><path d="M66.8546,60.6083c-1.0659-0.3966-2.2948-1.0086-3.6948-1.7661           c-0.003-0.0016-0.0029-0.0011-0.0054-0.0035c-0.0469-0.0468-2.4115-1.5334-3.2874-3.0491           c0.4312-0.6002,0.6089-0.5994,0.8574-0.5869c1.0741,0.9951,2.0749,1.5632,3.6052,2.2499           c0.3844,0.17,1.7771,0.6218,3.131,0.8892c0.5001,0.097,0.8858,0.5094,0.9604,1.0029           C68.5527,60.2369,67.681,60.916,66.8546,60.6083z" fill="#FFFFFF"/></g></g><g><g><g><g><g><path d="M70.8492,52.9073c-0.8613-0.9227-3.6737-0.6214-3.7139,0.2881              c-0.0231,0.5232,0.3976,0.8182,0.6863,1.0308c0.1006,0.0741,0.159,0.1853,0.1623,0.3036              c0.009,0.3148-0.0226,0.5794-0.0226,0.5794l0.1932,0.2068c0.0509-0.3451,0.1072-0.5299,0.1656-0.6448              c0.0215-0.0425,0.0798-0.0523,0.1169-0.0204c0.1685,0.1439,0.2803,0.3399,0.3087,0.5538              c0.034,0.2545,0.0527,0.6867-0.0899,1.0759c-0.0859,0.2346,0.0859,0.475,0.3547,0.4931              c0.5382,0.0364,1.0037-0.0501,1.5711-0.3145c0.2866-0.1335,0.477-0.3958,0.5189-0.6886              c0.0462-0.323,0.1034-0.6737,0.1034-0.6737C71.5965,53.3288,70.8492,52.9073,70.8492,52.9073z" fill="#A0533F"/></g></g></g></g></g></g></g></g></g><g><g><g><polygon fill="#1E72C6" points="80.5928,33.8824 80.3932,33.7675 80.4053,38.0438 73.0259,42.3022 72.8263,43.1548         72.4088,42.9147 72.3967,36.8359 80.6109,32.0935 81.0284,32.3338       "/><polygon fill="#3887E5" points="81.0276,32.3353 81.0428,38.4123 72.8248,43.1571 72.8095,37.0801       "/><g><polygon fill="#6B9EF9" points="76.9268,37.2551 72.8248,43.157 81.0443,38.4115        "/></g></g><polygon fill="#A6C2FF" points="81.0276,32.3353 76.9268,38.3847 72.8095,37.0801      "/></g></g><g><g><g><g><g><g><polygon fill="#A6C2FF" points="70.0725,29.2318 73.31,29.8662 80.7164,22.6039          "/><polygon fill="#6B9EF9" points="74.7253,32.8563 73.31,29.8664 80.7164,22.6038          "/><polygon fill="#1E72C6" points="74.6515,30.1811 74.7253,32.8563 80.7164,22.6038          "/><polygon fill="#A6C2FF" points="77.8984,30.7647 74.6515,30.1811 80.7164,22.6038          "/></g></g></g></g></g></g><g><g><g><polygon fill="#1E72C6" points="57.3317,29.0166 57.1321,28.9017 57.1441,33.1781 49.7647,37.4364 49.5651,38.2891         49.1476,38.049 49.1355,31.9701 57.3497,27.2277 57.7672,27.4681       "/><polygon fill="#3887E5" points="57.7664,27.4696 57.7817,33.5465 49.5636,38.2913 49.5483,32.2144       "/><g><polygon fill="#6B9EF9" points="53.6656,32.3893 49.5636,38.2912 57.7831,33.5457        "/></g></g><polygon fill="#A6C2FF" points="57.7664,27.4696 53.6656,33.5189 49.5483,32.2143      "/></g></g><g><g><g><g><g><g><polygon fill="#A6C2FF" points="46.8113,24.3661 50.0488,25.0005 57.4552,17.7381          "/><polygon fill="#6B9EF9" points="51.4641,27.9905 50.0488,25.0006 57.4552,17.738          "/><polygon fill="#1E72C6" points="51.3903,25.3153 51.4641,27.9905 57.4552,17.738          "/><polygon fill="#A6C2FF" points="54.6372,25.8989 51.3903,25.3153 57.4552,17.738          "/></g></g></g></g></g></g><g><g><g><polygon fill="#1E72C6" points="38.5547,50.7971 38.3551,50.6822 38.3672,54.9586 30.9878,59.2169 30.7881,60.0696         30.3706,59.8295 30.3585,53.7506 38.5727,49.0082 38.9902,49.2486       "/><polygon fill="#3887E5" points="38.9894,49.2501 39.0047,55.327 30.7867,60.0718 30.7714,53.9949       "/><g><polygon fill="#6B9EF9" points="34.8887,54.1698 30.7867,60.0717 39.0061,55.3262        "/></g></g><polygon fill="#A6C2FF" points="38.9894,49.2501 34.8887,55.2994 30.7714,53.9948      "/></g></g><g><g><g><g><g><g><polygon fill="#A6C2FF" points="28.0343,46.1466 31.2719,46.781 38.6783,39.5187          "/><polygon fill="#6B9EF9" points="32.6872,49.771 31.2719,46.7811 38.6783,39.5185          "/><polygon fill="#1E72C6" points="32.6133,47.0958 32.6872,49.771 38.6783,39.5185          "/><polygon fill="#A6C2FF" points="35.8603,47.6795 32.6133,47.0958 38.6783,39.5185          "/></g></g></g></g></g></g></g><path d="M103.2052,75.521l-0.3209-0.6623v-0.007c-0.0136-0.0203-0.0205-0.0477-0.0341-0.068    c-0.0956-0.2117-0.2799-0.4166-0.512-0.553L90.488,67.1792c-0.4642-0.273-0.9693-0.205-1.1263,0.1637l-5.0582,11.8709    c-0.0819,0.1843-0.0546,0.403,0.0478,0.6143l0.3481,0.7306c0.1024,0.2113,0.2799,0.4163,0.5188,0.5526l1.9045,1.1403    c0.1911,0.2796,0.4505,0.5393,0.7782,0.7303l0.4846,0.2936l0.0137,0.737c0.0068,0.1707,0.0682,0.3483,0.1638,0.512    c-0.0137-0.0203-0.0341-0.0407-0.0478-0.0613l0.157,0.3276c0.1297,0.273,0.3618,0.5256,0.6485,0.6963l1.4472,0.8603    c0.4506,0.273,0.942,0.2866,1.2355,0.041l0.6826-0.56l0.6349,0.3823c0.3208,0.191,0.6553,0.2866,0.9625,0.3003l2.7783,1.6519    c0.4642,0.2733,0.9693,0.198,1.1263-0.1637l5.0582-11.8709C103.3281,75.9439,103.3008,75.7256,103.2052,75.521z M90.7406,85.0433    c-0.0956,0.2253-0.3959,0.2663-0.6826,0.0957c-0.0819-0.048-0.1502-0.1093-0.2048-0.1777    c-0.0137-0.0683-0.0068-0.1363,0.0205-0.198c0.0956-0.225,0.4028-0.266,0.6826-0.1023c0.0819,0.0547,0.1502,0.116,0.2116,0.1777    C90.7747,84.9137,90.7679,84.982,90.7406,85.0433z" fill="#E1E9F4"/><g><g><g><g enable-background="new    "><g><path d="M103.4957,58.0364l-0.0489,17.3479c0,0.2633-0.094,0.4512-0.2444,0.5377l-0.5301,0.3082         c0.1504-0.0865,0.2444-0.2745,0.2444-0.5377l0.0489-17.3477c0-0.5339-0.376-1.1845-0.8384-1.4514l-11.8209-6.824         c-0.2369-0.1353-0.4474-0.1504-0.6016-0.06l0.5302-0.3084c0.1541-0.0865,0.3647-0.0753,0.6016,0.0602l11.8209,6.824         C103.1197,56.856,103.4957,57.5064,103.4957,58.0364z" fill="#83A1CC"/></g><g><path d="M102.1256,56.8932c0.4657,0.2689,0.8413,0.9196,0.8398,1.452l-0.0492,17.3473         c-0.0015,0.5325-0.3796,0.748-0.8453,0.4791l-11.8201-6.8244c-0.4657-0.2689-0.8414-0.9196-0.8398-1.452l0.0492-17.3473         c0.0015-0.5325,0.3796-0.748,0.8453-0.4791L102.1256,56.8932z" fill="#B6CBEA"/></g></g></g><g><polygon fill="#FFFFFF" points="101.4552,57.0978 101.4065,74.2659 90.9211,68.2122 90.9698,51.044      "/></g><g><g><g enable-background="new    "><g><path d="M92.5269,50.9395l-0.2387,0.1387c0.2764-0.1606,0.6591-0.1384,1.0826,0.1059l0.6385,0.3686          l0.2387-0.1386l-0.6385-0.3686C93.1861,50.8011,92.8033,50.7789,92.5269,50.9395z" fill="#6262AA"/><path d="M96.296,52.4803c-0.2832-0.1636-0.513-0.5612-0.512-0.8867          c0.0005-0.1627,0.0575-0.2765,0.1494-0.3299l-0.2387,0.1387c-0.0919,0.0534-0.149,0.1671-0.1494,0.3297          c-0.0009,0.3257,0.2288,0.7233,0.512,0.8869c0.1435,0.0828,0.2726,0.0905,0.3657,0.0364l0.2387-0.1386          C96.5686,52.5708,96.4394,52.5631,96.296,52.4803z" fill="#6262AA"/><path d="M99.0178,54.168l-0.6361-0.3672l-0.3473-1.3281c-0.1498-0.5728-0.545-1.1241-0.9939-1.3831          l-1.4451-0.8344c-0.2882-0.1663-0.5567-0.1869-0.7519-0.0734l-0.2387,0.1387c0.1952-0.1135,0.4638-0.0931,0.752,0.0732          l1.4451,0.8344c0.4489,0.2592,0.8441,0.8105,0.9939,1.3833l0.3473,1.3279l0.6361,0.3674          c0.8402,0.485,1.5173,1.6633,1.5146,2.626l0.2387-0.1387C100.5351,55.8315,99.858,54.6531,99.0178,54.168z" fill="#6262AA"/></g></g></g><g><path d="M98.7791,54.3067c0.8402,0.4851,1.5173,1.6634,1.5146,2.626l-8.4498-4.8785        c0.0027-0.9626,0.6843-1.3565,1.5269-0.87l0.6385,0.3687l0.3489-0.926c0.1526-0.3982,0.552-0.4907,0.9985-0.233l1.4451,0.8343        c0.4489,0.2592,0.8441,0.8105,0.9939,1.3833l0.3473,1.3279L98.7791,54.3067z M96.0573,52.6191        c0.2857,0.1649,0.5145,0.0319,0.5154-0.2936c0.0009-0.3282-0.2264-0.7219-0.512-0.8868        c-0.2833-0.1635-0.5145-0.0346-0.5154,0.2936C95.5443,52.0578,95.774,52.4555,96.0573,52.6191" fill="#2A2A5E"/></g></g></g><polygon fill="#3887E5" points="92.1062,61.4193 92.0915,67.2771 100.0131,71.8508 100.0278,65.993    "/><g><polygon fill="#6B9EF9" points="96.059,66.1616 100.0131,71.8507 92.0901,67.2763     "/></g><polygon fill="#A6C2FF" points="92.1062,61.4193 96.059,67.2505 100.0278,65.993    "/><g><g><polygon fill="#B6CBEA" points="97.0445,60.7272 97.0425,61.4506 91.9661,58.5197 91.9681,57.7964      "/></g><g><polygon fill="#B6CBEA" points="100.4102,59.1507 100.4082,59.874 91.976,55.0057 91.9781,54.2824      "/></g><g><polygon fill="#B6CBEA" points="100.4053,60.9077 100.4032,61.631 91.9711,56.7627 91.9731,56.0394      "/></g></g></g></g></g></svg>