<?xml version="1.0" standalone="no"?><!DOCTYPE svg PUBLIC "-//W3C//DTD SVG 1.1//EN" "http://www.w3.org/Graphics/SVG/1.1/DTD/svg11.dtd"><svg height="3500" legacy-metrics="false" node-id="1" sillyvg="true" template-height="3500" template-width="4500" version="1.1" viewBox="0 0 4500 3500" width="4500" xmlns="http://www.w3.org/2000/svg" xmlns:xlink="http://www.w3.org/1999/xlink"><defs node-id="82"></defs><g node-id="84"><path d="M 2122.97 407.86 L 2099.30 407.98 L 2075.24 408.49 L 2050.79 409.42 L 2025.93 410.77 L 2001.22 412.53 L 1976.26 414.77 L 1951.03 417.47 L 1925.53 420.66 L 1900.19 424.30 L 1874.71 428.48 L 1849.09 433.18 L 1823.32 438.43 L 1797.73 444.18 L 1772.12 450.53 L 1746.50 457.46 L 1720.84 464.99 L 1700.48 471.41 L 1680.19 478.25 L 1659.95 485.49 L 1639.76 493.16 L 1619.63 501.25 L 1599.71 509.71 L 1579.92 518.63 L 1560.24 528.00 L 1540.68 537.82 L 1521.23 548.11 L 1502.07 558.79 L 1483.10 569.97 L 1464.29 581.64 L 1445.66 593.81 L 1427.20 606.48 L 1409.12 619.55 L 1391.27 633.16 L 1373.65 647.31 L 1356.25 662.01 L 1339.07 677.27 L 1322.39 692.89 L 1305.98 709.09 L 1289.85 725.91 L 1273.98 743.33 L 1258.39 761.39 L 1242.29 781.04 L 1227.17 800.33 L 1213.00 819.25 L 1199.76 837.84 L 1187.40 856.08 L 1175.20 875.07 L 1163.82 893.72 L 1153.26 912.04 L 1143.48 930.04 L 1134.45 947.74 L 1125.70 966.03 L 1117.64 984.02 L 1110.25 1001.70 L 1103.52 1019.10 L 1097.42 1036.22 L 1091.67 1053.80 L 1086.49 1071.10 L 1081.86 1088.13 L 1077.77 1104.90 L 1074.20 1121.42 L 1061.22 1132.72 L 1048.65 1144.32 L 1036.48 1156.23 L 1024.71 1168.44 L 1013.33 1180.96 L 1002.33 1193.80 L 991.68 1206.98 L 981.46 1220.41 L 971.65 1234.09 L 962.26 1248.03 L 953.28 1262.23 L 944.70 1276.69 L 936.54 1291.41 L 928.82 1306.32 L 921.54 1321.43 L 914.69 1336.74 L 908.28 1352.27 L 902.30 1368.01 L 896.77 1383.91 L 891.71 1399.95 L 887.12 1416.13 L 882.98 1432.48 L 879.30 1448.98 L 876.08 1465.66 L 873.36 1482.38 L 871.12 1499.19 L 869.36 1516.11 L 868.10 1533.13 L 867.32 1550.27 L 867.04 1567.54 L 867.29 1583.53 L 867.97 1599.45 L 869.08 1615.30 L 870.61 1631.09 L 872.57 1646.82 L 874.96 1662.52 L 877.76 1678.10 L 880.98 1693.58 L 884.61 1708.97 L 888.67 1724.27 L 893.13 1739.45 L 898.00 1754.49 L 903.27 1769.39 L 908.94 1784.16 L 915.03 1798.81 L 921.51 1813.27 L 928.37 1827.55 L 935.64 1841.67 L 943.30 1855.61 L 951.37 1869.39 L 935.37 1875.83 L 919.70 1882.68 L 904.34 1889.93 L 889.29 1897.58 L 874.53 1905.63 L 860.06 1914.10 L 845.78 1923.01 L 831.84 1932.28 L 818.24 1941.90 L 804.95 1951.88 L 791.99 1962.21 L 779.34 1972.91 L 766.98 1983.99 L 754.97 1995.37 L 743.33 2007.05 L 732.03 2019.05 L 721.08 2031.36 L 710.48 2043.99 L 700.22 2056.91 L 690.36 2070.10 L 680.88 2083.54 L 671.78 2097.25 L 663.06 2111.23 L 654.72 2125.49 L 646.78 2139.96 L 639.26 2154.64 L 632.16 2169.53 L 625.47 2184.65 L 619.19 2199.99 L 613.32 2215.57 L 607.91 2231.27 L 602.95 2247.13 L 598.43 2263.17 L 594.36 2279.39 L 590.73 2295.80 L 587.55 2312.40 L 584.87 2329.01 L 582.66 2345.75 L 580.93 2362.62 L 579.69 2379.64 L 578.93 2396.81 L 578.67 2414.14 L 579.03 2433.69 L 580.03 2453.10 L 581.66 2472.37 L 583.91 2491.51 L 586.80 2510.53 L 590.31 2529.48 L 594.42 2548.23 L 599.13 2566.78 L 604.44 2585.14 L 610.35 2603.32 L 616.85 2621.32 L 623.91 2639.05 L 631.54 2656.52 L 639.74 2673.74 L 648.52 2690.73 L 657.84 2707.41 L 667.70 2723.76 L 678.10 2739.80 L 689.04 2755.52 L 700.54 2770.94 L 710.49 2783.48 L 720.79 2795.74 L 731.45 2807.74 L 742.47 2819.48 L 753.86 2830.95 L 765.63 2842.18 L 770.03 2849.21 L 771.64 2851.66 L 487.97 3100.54 L 3987.97 3100.54 L 3981.66 3098.76 L 3963.98 3093.50 L 3936.80 3084.89 L 3920.65 3079.52 L 3901.97 3073.08 L 3882.59 3066.12 L 3861.36 3058.18 L 3839.70 3049.70 L 3816.84 3040.33 L 3793.82 3030.39 L 3770.27 3019.66 L 3754.62 3012.17 L 3739.04 3004.39 L 3723.51 2996.30 L 3732.52 2988.00 L 3741.19 2979.46 L 3749.52 2970.68 L 3757.52 2961.64 L 3765.19 2952.35 L 3774.35 2940.37 L 3782.96 2928.07 L 3791.03 2915.45 L 3798.56 2902.50 L 3805.54 2889.24 L 3811.95 2875.73 L 3817.79 2861.96 L 3823.07 2847.92 L 3827.76 2833.67 L 3831.84 2819.25 L 3835.32 2804.62 L 3838.21 2789.78 L 3840.07 2777.85 L 3841.52 2765.85 L 3842.57 2753.75 L 3843.21 2741.57 L 3843.44 2729.28 L 3843.12 2714.51 L 3842.21 2699.92 L 3840.73 2685.52 L 3838.69 2671.28 L 3836.07 2657.20 L 3832.89 2643.19 L 3829.18 2629.41 L 3824.95 2615.87 L 3820.20 2602.54 L 3814.93 2589.43 L 3809.13 2576.51 L 3802.87 2563.89 L 3796.13 2551.55 L 3788.91 2539.50 L 3781.22 2527.72 L 3773.06 2516.24 L 3764.48 2505.13 L 3755.47 2494.36 L 3746.03 2483.93 L 3736.14 2473.84 L 3725.87 2464.16 L 3715.22 2454.90 L 3704.19 2446.05 L 3692.75 2437.61 L 3680.90 2429.57 L 3668.78 2422.04 L 3656.31 2414.98 L 3643.49 2408.40 L 3630.29 2402.30 L 3616.71 2396.66 L 3630.33 2382.85 L 3643.44 2368.70 L 3656.03 2354.20 L 3668.11 2339.34 L 3679.69 2324.12 L 3690.80 2308.51 L 3701.37 2292.62 L 3711.41 2276.44 L 3720.92 2259.96 L 3729.91 2243.18 L 3738.37 2226.11 L 3746.27 2208.82 L 3753.62 2191.30 L 3760.42 2173.54 L 3766.66 2155.53 L 3772.34 2137.35 L 3777.43 2119.00 L 3781.94 2100.48 L 3785.88 2081.77 L 3789.24 2062.87 L 3791.99 2043.91 L 3794.14 2024.84 L 3795.68 2005.65 L 3796.61 1986.33 L 3796.93 1966.88 L 3796.62 1949.08 L 3795.79 1931.43 L 3794.47 1913.92 L 3792.65 1896.54 L 3790.33 1879.29 L 3787.51 1862.15 L 3784.19 1845.03 L 3780.40 1828.11 L 3776.15 1811.36 L 3771.43 1794.79 L 3766.24 1778.39 L 3760.59 1762.15 L 3754.46 1746.05 L 3747.90 1730.18 L 3740.91 1714.53 L 3733.49 1699.11 L 3725.62 1683.91 L 3717.32 1668.91 L 3708.59 1654.15 L 3699.46 1639.67 L 3689.93 1625.47 L 3679.99 1611.54 L 3669.64 1597.87 L 3658.87 1584.46 L 3647.74 1571.38 L 3636.23 1558.63 L 3624.36 1546.21 L 3612.09 1534.10 L 3599.44 1522.31 L 3586.40 1510.83 L 3573.07 1499.77 L 3559.40 1489.08 L 3545.36 1478.77 L 3530.97 1468.83 L 3516.21 1459.25 L 3501.07 1450.04 L 3507.96 1435.15 L 3514.39 1420.11 L 3520.35 1404.92 L 3525.85 1389.57 L 3530.90 1374.06 L 3535.49 1358.40 L 3539.60 1342.63 L 3543.24 1326.76 L 3546.41 1310.78 L 3549.12 1294.68 L 3551.34 1278.51 L 3553.08 1262.29 L 3554.34 1246.01 L 3555.12 1229.66 L 3555.41 1213.23 L 3555.15 1196.36 L 3554.40 1179.69 L 3553.17 1163.21 L 3551.47 1146.92 L 3549.29 1130.81 L 3546.65 1114.86 L 3543.51 1098.90 L 3539.94 1083.15 L 3535.94 1067.63 L 3531.51 1052.31 L 3526.65 1037.20 L 3521.37 1022.28 L 3515.63 1007.46 L 3509.50 992.89 L 3502.98 978.57 L 3496.08 964.49 L 3488.80 950.64 L 3481.12 937.03 L 3471.37 920.95 L 3461.14 905.28 L 3450.41 890.02 L 3439.17 875.14 L 3427.43 860.65 L 3415.19 846.55 L 3402.52 832.91 L 3389.41 819.73 L 3375.85 806.99 L 3361.84 794.69 L 3347.42 782.88 L 3332.63 771.58 L 3317.44 760.78 L 3301.87 750.49 L 3285.89 740.70 L 3272.34 732.97 L 3258.57 725.64 L 3244.57 718.70 L 3230.33 712.15 L 3215.84 705.99 L 3201.11 700.22 L 3186.27 694.90 L 3171.24 690.02 L 3156.01 685.57 L 3140.57 681.54 L 3124.92 677.96 L 3109.04 674.80 L 3093.19 672.14 L 3077.16 669.95 L 3060.96 668.24 L 3044.58 667.00 L 3028.00 666.25 L 3011.23 665.99 L 2994.34 666.25 L 2977.52 667.04 L 2960.75 668.34 L 2944.03 670.17 L 2927.37 672.52 L 2910.82 675.38 L 2894.36 678.76 L 2877.99 682.65 L 2861.75 687.04 L 2845.66 691.94 L 2829.70 697.34 L 2813.86 703.25 L 2802.28 689.41 L 2790.57 676.08 L 2778.71 663.24 L 2766.71 650.90 L 2754.37 638.77 L 2741.94 627.07 L 2729.43 615.77 L 2716.83 604.87 L 2699.68 590.68 L 2682.47 577.07 L 2665.22 564.04 L 2647.71 551.34 L 2630.26 539.09 L 2612.87 527.29 L 2586.62 510.02 L 2560.78 493.50 L 2552.20 488.36 L 2542.36 483.08 L 2531.15 477.65 L 2518.45 472.07 L 2506.01 467.09 L 2492.41 462.10 L 2477.57 457.09 L 2461.40 452.07 L 2445.54 447.55 L 2428.63 443.11 L 2410.64 438.79 L 2391.50 434.57 L 2372.65 430.79 L 2352.89 427.20 L 2332.21 423.81 L 2310.56 420.65 L 2289.18 417.89 L 2267.04 415.42 L 2244.14 413.25 L 2220.44 411.38 L 2196.97 409.93 L 2172.91 408.85 L 2148.25 408.16 L 2122.97 407.86 L 2122.97 407.86 Z" fill="#f2f4ff" fill-rule="nonzero" group-id="1" id="path13786-6-3" node-id="5" stroke-linecap="butt" stroke-width="1" target-height="2692.677" target-width="3499.9998" target-x="487.9699" target-y="407.862"></path><path d="M 3641.25 1971.50 L 3618.10 1971.80 L 3595.47 1972.61 L 3573.35 1973.92 L 3551.72 1975.73 L 3534.27 1977.62 L 3517.25 1979.87 L 3500.64 1982.48 L 3484.43 1985.45 L 3468.62 1988.77 L 3452.69 1992.58 L 3437.25 1996.80 L 3422.30 2001.41 L 3407.82 2006.41 L 3393.79 2011.79 L 3379.80 2017.77 L 3366.35 2024.18 L 3353.43 2031.02 L 3341.01 2038.29 L 3329.08 2046.00 L 3319.36 2052.89 L 3310.02 2060.13 L 3301.05 2067.71 L 3292.46 2075.64 L 3284.22 2083.92 L 3276.34 2092.57 L 3253.82 2119.03 L 3233.17 2144.14 L 3214.31 2167.96 L 3195.84 2192.12 L 3178.86 2215.02 L 3163.31 2236.70 L 3140.84 2269.11 L 3120.87 2298.91 L 3084.53 2354.70 L 3067.65 2380.57 L 3051.83 2404.19 L 3041.16 2419.54 L 3030.65 2433.96 L 3020.31 2447.49 L 3012.26 2457.46 L 3004.11 2466.98 L 2995.86 2476.06 L 2987.51 2484.71 L 2978.84 2493.08 L 2969.86 2501.08 L 2960.58 2508.71 L 2950.98 2515.97 L 2941.11 2522.79 L 2930.72 2529.29 L 2919.77 2535.50 L 2908.24 2541.39 L 2896.62 2546.71 L 2884.21 2551.77 L 2870.96 2556.56 L 2856.84 2561.07 L 2842.86 2564.98 L 2827.82 2568.64 L 2811.65 2572.03 L 2794.31 2575.13 L 2777.32 2577.69 L 2759.03 2579.99 L 2739.34 2582.00 L 2718.20 2583.69 L 2687.73 2585.55 L 2658.21 2586.93 L 2629.64 2587.85 L 2587.07 2588.66 L 2546.56 2588.97 L 2468.93 2589.18 L 2443.94 2589.41 L 2419.87 2589.89 L 2396.68 2590.61 L 2373.49 2591.74 L 2351.19 2593.34 L 2329.76 2595.40 L 2313.65 2597.37 L 2298.02 2599.75 L 2282.84 2602.51 L 2268.10 2605.65 L 2253.40 2609.33 L 2239.10 2613.54 L 2225.20 2618.27 L 2211.67 2623.51 L 2201.01 2628.16 L 2190.57 2633.23 L 2180.32 2638.74 L 2170.26 2644.70 L 2160.39 2651.09 L 2150.88 2657.85 L 2141.51 2665.15 L 2132.28 2673.02 L 2123.18 2681.48 L 2114.22 2690.53 L 2105.81 2699.76 L 2097.49 2709.68 L 2089.27 2720.33 L 2081.13 2731.74 L 2073.09 2743.95 L 2065.72 2756.04 L 2058.42 2769.00 L 2051.19 2782.86 L 2044.03 2797.67 L 2036.96 2813.48 L 2031.48 2825.41 L 2025.68 2836.66 L 2019.59 2847.24 L 2013.20 2857.20 L 2006.52 2866.55 L 1999.28 2875.72 L 1991.77 2884.37 L 1983.99 2892.54 L 1975.93 2900.24 L 1967.59 2907.47 L 1958.90 2914.36 L 1949.96 2920.89 L 1940.77 2927.05 L 1931.31 2932.85 L 1921.59 2938.30 L 1909.20 2944.62 L 1896.46 2950.52 L 1883.37 2956.01 L 1869.91 2961.08 L 1856.34 2965.72 L 1842.50 2970.07 L 1828.38 2974.12 L 1813.97 2977.88 L 1794.68 2982.47 L 1775.09 2986.77 L 1755.17 2990.75 L 1725.17 2996.35 L 1694.92 3001.74 L 1664.67 3007.18 L 1634.64 3012.92 L 1614.70 3017.04 L 1595.07 3021.51 L 1575.73 3026.33 L 1561.29 3030.28 L 1547.12 3034.55 L 1533.23 3039.13 L 1519.59 3044.03 L 1506.08 3049.38 L 1492.93 3055.17 L 1480.12 3061.40 L 1467.64 3068.08 L 1457.87 3073.82 L 1448.35 3079.93 L 1439.09 3086.41 L 1430.07 3093.28 L 1421.29 3100.54 L 3987.97 3100.54 L 3981.66 3098.76 L 3963.98 3093.50 L 3936.80 3084.89 L 3920.65 3079.52 L 3901.97 3073.07 L 3882.59 3066.12 L 3861.36 3058.17 L 3839.70 3049.70 L 3816.84 3040.32 L 3793.82 3030.39 L 3770.27 3019.65 L 3754.62 3012.17 L 3739.04 3004.39 L 3723.51 2996.30 L 3732.52 2988.00 L 3741.18 2979.46 L 3749.51 2970.68 L 3757.52 2961.64 L 3765.19 2952.35 L 3774.35 2940.37 L 3782.96 2928.07 L 3791.02 2915.45 L 3798.56 2902.50 L 3805.54 2889.24 L 3811.95 2875.73 L 3817.79 2861.96 L 3823.07 2847.92 L 3827.76 2833.67 L 3831.84 2819.24 L 3835.32 2804.62 L 3838.21 2789.78 L 3840.07 2777.85 L 3841.52 2765.84 L 3842.57 2753.75 L 3843.21 2741.57 L 3843.44 2729.28 L 3843.11 2714.51 L 3842.21 2699.92 L 3840.73 2685.52 L 3838.69 2671.28 L 3836.07 2657.20 L 3832.88 2643.18 L 3829.18 2629.41 L 3824.95 2615.86 L 3820.20 2602.54 L 3814.93 2589.43 L 3809.13 2576.51 L 3802.87 2563.88 L 3796.13 2551.55 L 3788.91 2539.50 L 3781.21 2527.72 L 3773.06 2516.24 L 3764.48 2505.13 L 3755.47 2494.36 L 3746.03 2483.93 L 3736.14 2473.84 L 3725.87 2464.16 L 3715.22 2454.90 L 3704.19 2446.05 L 3692.75 2437.61 L 3680.90 2429.57 L 3668.78 2422.04 L 3656.31 2414.98 L 3643.49 2408.40 L 3630.29 2402.30 L 3616.70 2396.66 L 3629.92 2383.25 L 3642.64 2369.51 L 3654.88 2355.44 L 3666.65 2341.03 L 3677.94 2326.29 L 3688.79 2311.17 L 3699.13 2295.78 L 3708.97 2280.12 L 3718.32 2264.17 L 3727.18 2247.93 L 3735.54 2231.42 L 3743.37 2214.70 L 3750.68 2197.75 L 3757.48 2180.57 L 3763.76 2163.15 L 3769.49 2145.55 L 3774.69 2127.79 L 3779.34 2109.86 L 3783.44 2091.76 L 3787.01 2073.46 L 3790.00 2055.09 L 3792.42 2036.61 L 3794.28 2018.01 L 3795.56 1999.28 L 3796.27 1980.41 L 3769.81 1977.72 L 3743.64 1975.51 L 3717.74 1973.75 L 3691.81 1972.46 L 3666.31 1971.72 L 3641.25 1971.50 L 3641.25 1971.50 Z" fill="#e7eaff" fill-rule="nonzero" group-id="1" id="path13788-1-5" node-id="6" stroke-linecap="butt" stroke-width="1" target-height="1129.0361" target-width="2566.6787" target-x="1421.2899" target-y="1971.502"></path></g><path d="M 1307.38 3015.16 L 1299.19 2948.52 L 1379.03 2948.52 L 1398.05 2948.52 L 1399.70 3042.41 L 1307.38 3015.16 Z" fill="#f6c6c0" fill-rule="nonzero" id="path35634-6-7" node-id="7" stroke="none" target-height="93.88916" target-width="100.50708" target-x="1299.194" target-y="2948.523"></path><path d="M 1382.90 1807.36 L 1402.40 2714.66 L 1398.05 2948.52 L 1299.20 2948.52 L 1274.64 2714.66 L 1217.43 2169.75 L 1082.83 2714.66 L 1025.06 2948.52 L 934.39 2948.52 L 960.12 2714.66 L 1005.39 2202.58 C 1000.68 2118.90 928.75 1927.40 1042.20 1833.88 L 1382.90 1807.36 Z" fill="#6584f7" fill-rule="nonzero" id="path35658-8-6" node-id="8" stroke="none" target-height="1141.164" target-width="468.01398" target-x="934.388" target-y="1807.359"></path><path d="M 1274.64 2714.66 L 1402.40 2714.66 L 1398.05 2948.52 L 1299.20 2948.52 L 1274.64 2714.66 Z" fill="#3362c4" fill-rule="nonzero" id="path35660-8-83" node-id="9" stroke="none" target-height="233.86499" target-width="127.75903" target-x="1274.643" target-y="2714.658"></path><path d="M 960.12 2714.66 L 1082.83 2714.66 L 1025.06 2948.52 L 934.39 2948.52 L 960.12 2714.66 Z" fill="#3362c4" fill-rule="nonzero" id="path35662-3-4" node-id="10" stroke="none" target-height="233.86499" target-width="148.43805" target-x="934.388" target-y="2714.658"></path><path d="M 1217.44 2169.75 L 1265.51 1990.31 L 1302.80 1990.31 L 1242.18 2407.57 L 1217.44 2169.75 Z" fill="#3362c4" fill-rule="nonzero" id="path35664-3-4" node-id="11" stroke="none" target-height="417.25903" target-width="85.362915" target-x="1217.436" target-y="1990.314"></path><path d="M 1382.93 1779.90 L 1382.90 1807.36 L 1042.20 1833.88 L 1048.60 1779.90 L 1382.93 1779.90 Z" fill="#ffffff" fill-rule="nonzero" id="path35666-7-0" node-id="12" stroke="none" target-height="53.984985" target-width="340.734" target-x="1042.2" target-y="1779.896"></path><path d="M 1398.05 2978.08 L 1302.38 2979.19 L 1307.38 3015.16 C 1307.38 3015.16 1399.25 3009.17 1399.45 3008.13 C 1399.67 3007.10 1398.05 2978.08 1398.05 2978.08 Z" fill="#ffffff" fill-rule="nonzero" id="path35668-6-1" node-id="13" stroke="none" target-height="37.07202" target-width="97.07593" target-x="1302.378" target-y="2978.084"></path><path d="M 1558.31 3100.54 L 1297.86 3100.54 L 1307.38 3015.16 L 1338.40 3006.67 C 1359.52 2986.28 1398.17 2981.28 1424.56 3011.33 C 1424.56 3011.33 1472.84 3046.07 1496.39 3046.66 C 1544.11 3046.66 1561.94 3055.79 1558.31 3100.54 Z" fill="#3d3d3d" fill-rule="nonzero" id="path35670-9-5" node-id="14" stroke="none" target-height="110.45044" target-width="260.87744" target-x="1297.861" target-y="2990.0876"></path><path d="M 1014.53 3015.16 L 1025.06 2948.52 L 953.40 2948.52 L 934.39 2948.52 L 922.21 3042.41 L 1014.53 3015.16 Z" fill="#f6c6c0" fill-rule="nonzero" id="path35672-8-3" node-id="15" stroke="none" target-height="93.88916" target-width="102.84601" target-x="922.212" target-y="2948.523"></path><path d="M 930.27 2978.08 L 1020.23 2979.19 L 1014.53 3015.16 C 1014.53 3015.16 922.67 3009.17 922.46 3008.13 C 922.24 3007.10 930.27 2978.08 930.27 2978.08 Z" fill="#ffffff" fill-rule="nonzero" id="path35674-8-44" node-id="16" stroke="none" target-height="37.07202" target-width="97.77301" target-x="922.459" target-y="2978.084"></path><path d="M 861.91 3100.54 L 1018.26 3100.54 L 1014.53 3015.16 L 983.51 3006.67 C 962.39 2986.28 930.28 2978.08 912.56 3008.11 C 889.59 3067.60 858.20 3042.93 861.91 3100.54 Z" fill="#3d3d3d" fill-rule="nonzero" id="path35676-3-1" node-id="17" stroke="none" target-height="112.10303" target-width="156.63928" target-x="861.62573" target-y="2988.435"></path><path d="M 1035.16 640.11 C 1035.16 640.11 955.45 897.93 857.91 1026.26 C 760.38 1154.59 817.93 1259.17 940.98 1259.09 C 1064.04 1259.01 1313.99 1200.50 1313.99 1200.50 L 1412.99 1174.22 C 1412.99 1174.22 1482.93 1073.37 1422.98 987.38 C 1363.03 901.39 1372.88 752.04 1372.88 752.04 C 1372.88 752.04 1111.27 578.92 1035.16 640.11 L 1035.16 640.11 Z" fill="#3d3d3d" fill-rule="nonzero" id="path4297-4-8-8-1" node-id="18" stroke="none" target-height="632.0719" target-width="638.5934" target-x="808.67224" target-y="627.01416"></path><path d="M 1068.62 1087.46 L 982.95 1105.92 C 982.95 1105.92 948.39 1141.17 948.39 1202.56 C 948.39 1263.95 953.51 1430.22 953.51 1430.22 L 1048.15 1451.96 L 1068.62 1087.46 Z" fill="#ff6853" fill-rule="nonzero" id="path9180" node-id="19" stroke="none" target-height="364.50293" target-width="120.221985" target-x="948.394" target-y="1087.456"></path><path d="M 1182.87 992.49 C 1157.34 992.34 1138.86 995.05 1138.86 995.05 C 1088.00 1048.50 1037.51 1063.16 982.95 1105.92 L 982.95 1392.12 L 1044.81 1644.71 L 1048.60 1779.90 L 1382.93 1779.90 L 1378.76 1467.03 C 1399.83 1463.43 1416.48 1456.54 1428.94 1447.07 C 1457.12 1492.88 1498.72 1535.01 1520.43 1578.71 L 1639.05 1566.83 C 1588.23 1389.39 1535.74 1310.66 1479.94 1187.37 C 1431.73 1097.52 1382.40 1091.48 1318.58 1046.69 C 1294.88 1007.51 1243.35 995.75 1201.52 993.12 C 1195.02 992.71 1188.76 992.52 1182.87 992.49 Z" fill="#ff6853" fill-rule="nonzero" id="path4262-7-9-5-98" node-id="20" stroke="none" target-height="787.407" target-width="656.102" target-x="982.95" target-y="992.49"></path><path d="M 1355.12 779.85 L 1375.24 842.52 C 1460.81 838.92 1434.45 643.61 1355.12 779.85 Z" fill="#f69cb3" fill-rule="nonzero" id="path4242-0-8-5-0" node-id="21" stroke="none" target-height="110.897644" target-width="73.09912" target-x="1355.118" target-y="731.6274"></path><path d="M 1156.37 828.08 C 1156.37 828.08 1156.93 911.52 1153.03 947.66 C 1149.13 983.80 1148.59 1003.47 1148.59 1003.47 L 1231.81 1089.81 L 1280.88 1049.74 L 1262.04 954.83 L 1156.37 828.08 Z" fill="#f6c6c0" fill-rule="nonzero" id="path4248-1-7-73-67" node-id="22" stroke="none" target-height="261.73206" target-width="132.29199" target-x="1148.585" target-y="828.079"></path><path d="M 1156.37 828.08 L 1262.04 954.83 L 1276.29 1026.61 C 1257.63 1029.25 1237.54 1027.20 1223.83 1012.23 C 1191.30 976.72 1186.31 891.47 1186.31 891.47 L 1156.37 828.08 Z" fill="#f69cb3" fill-rule="nonzero" id="path4250-1-3-9-0" node-id="23" stroke="none" target-height="199.50464" target-width="119.91406" target-x="1156.372" target-y="828.079"></path><path d="M 1156.37 828.08 C 1072.02 813.25 1123.82 623.11 1184.56 768.59 C 1205.45 738.37 1247.88 694.88 1230.52 632.76 C 1292.43 657.55 1343.86 676.97 1412.95 663.03 C 1420.47 960.44 1260.26 1130.38 1156.37 828.08 L 1156.37 828.08 Z" fill="#f6c6c0" fill-rule="nonzero" id="path4252-8-9-7-5" node-id="24" stroke="none" target-height="354.39063" target-width="300.95178" target-x="1112.2433" target-y="632.761"></path><path d="M 1162.79 788.32 C 1163.27 786.83 1160.18 764.64 1148.72 748.72 C 1137.26 732.80 1125.49 750.22 1125.49 750.22 C 1125.49 750.22 1137.04 747.57 1142.76 758.56 C 1148.48 769.55 1126.10 781.35 1145.25 795.50 C 1164.41 809.65 1162.79 788.32 1162.79 788.32 Z" fill="#f69cb3" fill-rule="nonzero" id="path4254-5-5-9-7" node-id="25" stroke="none" target-height="58.27716" target-width="37.33618" target-x="1125.494" target-y="742.0308"></path><path d="M 1231.81 1089.81 L 1149.16 995.49 L 1151.53 965.22 C 1119.13 984.96 1112.96 1019.00 1116.61 1037.57 L 1165.00 1157.29 L 1231.81 1089.81 Z" fill="#ffffff" fill-rule="nonzero" id="path4256-48-3-74-4" node-id="26" stroke="none" target-height="192.06598" target-width="116.08679" target-x="1115.7252" target-y="965.221"></path><path d="M 1280.88 1049.74 L 1269.39 991.94 C 1301.20 1001.78 1327.92 1049.02 1318.52 1078.43 C 1315.54 1087.11 1288.94 1162.61 1288.94 1162.61 L 1231.81 1089.81 L 1280.88 1049.74 Z" fill="#ffffff" fill-rule="nonzero" id="path4258-6-9-5-62" node-id="27" stroke="none" target-height="170.66595" target-width="88.60132" target-x="1231.812" target-y="991.94"></path><path d="M 1411.99 677.62 C 1387.96 748.29 1258.33 835.77 1190.40 800.35 L 1184.56 768.59 C 1184.56 768.59 1167.23 722.29 1142.68 714.46 C 1118.13 706.62 1035.16 640.11 1035.16 640.11 C 1035.16 640.11 1073.76 521.53 1154.27 473.52 C 1234.78 425.51 1351.17 488.58 1418.37 535.79 C 1457.01 562.94 1443.58 613.15 1443.58 613.15 C 1459.05 654.02 1486.64 688.65 1459.06 733.71 C 1431.47 778.76 1406.09 785.08 1406.09 785.08 C 1406.09 785.08 1414.25 725.75 1411.99 677.62 L 1411.99 677.62 Z" fill="#3d3d3d" fill-rule="nonzero" id="path4260-9-9-5-36" node-id="28" stroke="none" target-height="352.10797" target-width="435.64148" target-x="1035.156" target-y="456.35968"></path><path d="M 1378.76 1467.03 C 1345.18 1467.03 1309.80 1480.40 1252.08 1403.95 C 1214.05 1437.80 1168.83 1469.35 1083.03 1446.71 L 1384.70 1580.68 L 1378.76 1467.03 Z" fill="#e0523c" fill-rule="nonzero" id="path14884-1-0-6-6" node-id="29" stroke="none" target-height="176.73206" target-width="301.67102" target-x="1083.027" target-y="1403.953"></path><path d="M 1520.43 1578.71 L 1499.73 1544.67 L 1650.65 1488.56 L 1639.05 1566.83 L 1520.43 1578.71 Z" fill="#ffffff" fill-rule="nonzero" id="path7266-7-6" node-id="30" stroke="none" target-height="90.151" target-width="150.92102" target-x="1499.729" target-y="1488.56"></path><path d="M 1299.20 2948.52 L 1302.38 2979.19 L 1398.05 2978.08 L 1398.05 2948.52 L 1299.20 2948.52 Z" fill="#f6cdc1" fill-rule="nonzero" id="path36129-2-7" node-id="31" stroke="none" target-height="30.671143" target-width="98.85303" target-x="1299.197" target-y="2948.523"></path><path d="M 1586.16 1365.41 C 1592.85 1311.69 1632.90 1352.24 1632.90 1374.21 C 1632.90 1374.21 1645.83 1345.81 1650.75 1335.88 C 1656.53 1328.78 1666.04 1322.83 1681.25 1326.13 C 1722.74 1335.03 1753.58 1403.24 1735.90 1445.16 C 1729.44 1458.00 1669.11 1512.90 1669.11 1512.90 L 1667.87 1514.83 L 1604.17 1483.62 C 1604.14 1475.21 1601.53 1465.49 1598.90 1450.01 C 1567.94 1435.95 1574.86 1416.13 1586.16 1365.41 L 1586.16 1365.41 Z" fill="#f6cdc1" fill-rule="nonzero" id="path5736-7" node-id="32" stroke="none" target-height="189.62988" target-width="164.38196" target-x="1576.5978" target-y="1325.2041"></path><path d="M 787.44 2682.39 C 707.27 2682.39 642.74 2746.92 642.74 2827.09 L 642.74 3100.54 L 1089.46 3100.54 L 1089.46 2827.09 C 1089.46 2746.92 1024.92 2682.39 944.76 2682.39 L 787.44 2682.39 Z" fill="#e3e1ff" fill-rule="nonzero" id="rect8215" node-id="33" stroke="none" target-height="418.14697" target-width="446.71503" target-x="642.741" target-y="2682.391"></path><path d="M 1462.32 2404.09 C 1382.16 2404.09 1317.62 2468.62 1317.62 2548.78 L 1317.62 3100.54 L 1785.62 3100.54 L 1785.62 2548.78 C 1785.62 2468.62 1721.09 2404.09 1640.92 2404.09 L 1462.32 2404.09 Z" fill="#cecfff" fill-rule="nonzero" id="path8220" node-id="34" stroke="none" target-height="696.449" target-width="467.99707" target-x="1317.622" target-y="2404.089"></path><path d="M 2483.45 3015.16 L 2491.64 2948.52 L 2411.80 2948.52 L 2392.79 2948.52 L 2391.13 3042.41 L 2483.45 3015.16 Z" fill="#f6c6c0" fill-rule="nonzero" id="path913-9-13" node-id="35" stroke="none" target-height="93.88916" target-width="100.506836" target-x="2391.131" target-y="2948.523"></path><path d="M 2685.32 913.63 L 2564.60 999.18 L 2493.08 935.12 C 2493.08 935.12 2479.43 943.39 2387.66 985.98 C 2295.88 1028.56 2261.15 1069.90 2261.15 1069.90 L 2127.04 1261.37 L 2002.73 1414.89 C 2005.67 1417.62 2040.59 1426.78 2043.52 1429.22 C 2132.00 1502.81 2187.39 1448.23 2187.39 1448.23 L 2335.87 1311.43 L 2369.92 1719.80 L 2742.22 1719.80 L 2758.29 1524.23 C 2829.05 1498.90 2931.17 1502.54 2943.01 1429.91 C 2952.49 1337.39 2921.51 1257.10 2902.49 1123.98 C 2894.37 1071.32 2881.41 1021.52 2809.96 985.99 L 2685.32 913.63 Z" fill="#6584f7" fill-rule="nonzero" id="path35496-7-82" node-id="36" stroke="none" target-height="806.174" target-width="942.0504" target-x="2002.732" target-y="913.628"></path><path d="M 2472.93 676.19 L 2448.72 737.40 C 2363.58 728.17 2402.74 535.02 2472.93 676.19 L 2472.93 676.19 Z" fill="#f69cb3" fill-rule="nonzero" id="path883-6-5" node-id="37" stroke="none" target-height="112.62988" target-width="72.66113" target-x="2400.2688" target-y="624.7741"></path><path d="M 2435.80 539.18 C 2435.80 539.18 2407.81 545.23 2392.68 571.71 C 2377.54 598.19 2427.48 683.69 2427.48 683.69 L 2435.80 539.18 Z" fill="#3d3d3d" fill-rule="nonzero" id="path876-7-48" node-id="38" stroke="none" target-height="144.50696" target-width="45.97412" target-x="2389.826" target-y="539.179"></path><path d="M 2671.10 521.78 C 2671.10 521.78 2710.44 519.51 2721.03 568.68 C 2731.62 617.86 2688.50 711.68 2688.50 711.68 C 2695.97 778.60 2673.61 832.10 2615.11 769.94 C 2588.63 739.67 2572.74 572.47 2572.74 572.47 C 2572.74 572.47 2466.77 589.10 2422.92 555.82 C 2379.06 522.53 2332.15 422.92 2392.68 403.88 C 2453.20 384.84 2467.07 427.92 2597.45 422.13 C 2665.55 419.10 2693.79 474.87 2671.10 521.78 L 2671.10 521.78 Z" fill="#3d3d3d" fill-rule="nonzero" id="path874-7-52" node-id="39" stroke="none" target-height="398.40204" target-width="358.8296" target-x="2363.8442" target-y="399.02716"></path><path d="M 2668.07 737.40 C 2668.07 737.40 2662.01 820.63 2663.53 856.94 C 2665.05 893.26 2664.28 912.93 2664.28 912.93 L 2575.56 993.60 L 2529.24 950.38 L 2554.28 856.92 L 2668.07 737.40 Z" fill="#f6c6c0" fill-rule="nonzero" id="path885-54-9" node-id="40" stroke="none" target-height="256.19604" target-width="138.83203" target-x="2529.238" target-y="737.402"></path><path d="M 2668.07 737.40 L 2554.28 856.92 L 2535.34 927.61 C 2553.78 931.47 2573.96 930.75 2588.63 916.71 C 2623.43 883.42 2634.02 798.69 2634.02 798.69 L 2668.07 737.40 Z" fill="#f69cb3" fill-rule="nonzero" id="path887-8-2" node-id="41" stroke="none" target-height="192.21918" target-width="132.72998" target-x="2535.34" target-y="737.403"></path><path d="M 2668.07 737.40 C 2753.21 728.17 2714.05 535.02 2643.86 676.19 C 2625.00 644.66 2585.53 598.47 2606.95 537.63 C 2543.54 558.28 2490.94 574.27 2422.91 555.82 C 2395.82 852.08 2544.50 1032.20 2668.07 737.40 Z" fill="#f6c6c0" fill-rule="nonzero" id="path870-1-50" node-id="42" stroke="none" target-height="350.1988" target-width="296.8484" target-x="2419.6746" target-y="537.626"></path><path d="M 2664.28 697.30 C 2663.91 695.79 2668.45 673.85 2680.93 658.72 C 2693.41 643.59 2704.01 661.75 2704.01 661.75 C 2704.01 661.75 2692.66 658.34 2686.23 668.93 C 2679.80 679.52 2701.36 692.76 2681.31 705.63 C 2661.26 718.49 2664.28 697.30 2664.28 697.30 L 2664.28 697.30 Z" fill="#f69cb3" fill-rule="nonzero" id="path894-4-0" node-id="43" stroke="none" target-height="57.06012" target-width="39.852295" target-x="2664.1538" target-y="652.7001"></path><path d="M 2575.56 993.60 L 2664.24 904.92 L 2663.87 874.57 C 2694.90 896.40 2704.66 915.57 2699.79 933.86 L 2637.78 1065.33 L 2575.56 993.60 Z" fill="#ffffff" fill-rule="nonzero" id="path881-5-7" node-id="44" stroke="none" target-height="190.76202" target-width="125.388916" target-x="2575.557" target-y="874.566"></path><path d="M 2529.24 950.38 L 2544.51 893.47 C 2512.12 901.19 2466.56 927.27 2474.00 957.23 C 2476.40 966.10 2513.76 1062.47 2513.76 1062.47 L 2575.56 993.60 L 2529.24 950.38 Z" fill="#ffffff" fill-rule="nonzero" id="path884-9-52" node-id="45" stroke="none" target-height="169.00897" target-width="102.34766" target-x="2473.2092" target-y="893.465"></path><path d="M 2335.87 1311.43 L 2319.03 1214.60 L 2228.90 1412.21 L 2335.87 1311.43 Z" fill="#3362c4" fill-rule="nonzero" id="path919-8-9" node-id="46" stroke="none" target-height="197.61499" target-width="106.96387" target-x="2228.904" target-y="1214.6"></path><path d="M 2370.43 1747.30 L 2388.43 2714.66 L 2392.79 2948.52 L 2491.64 2948.52 L 2516.19 2714.66 L 2573.40 2169.75 L 2708.01 2714.66 L 2765.78 2948.52 L 2856.45 2948.52 L 2830.71 2714.66 L 2748.63 1773.79 L 2370.43 1747.30 Z" fill="#ff6853" fill-rule="nonzero" id="path16354-7-6" node-id="47" stroke="none" target-height="1201.225" target-width="486.0171" target-x="2370.428" target-y="1747.298"></path><path d="M 2516.19 2714.66 L 2388.43 2714.66 L 2392.79 2948.52 L 2491.64 2948.52 L 2516.19 2714.66 Z" fill="#e0523c" fill-rule="nonzero" id="path935-0-3" node-id="48" stroke="none" target-height="233.86499" target-width="127.75708" target-x="2388.432" target-y="2714.658"></path><path d="M 2830.71 2714.66 L 2708.01 2714.66 L 2765.78 2948.52 L 2856.44 2948.52 L 2830.71 2714.66 Z" fill="#e0523c" fill-rule="nonzero" id="path933-5-9" node-id="49" stroke="none" target-height="233.86499" target-width="148.43799" target-x="2708.006" target-y="2714.658"></path><path d="M 2573.40 2169.75 L 2525.32 1990.31 L 2488.04 1990.31 L 2548.65 2407.57 L 2573.40 2169.75 Z" fill="#e0523c" fill-rule="nonzero" id="path925-6-9" node-id="50" stroke="none" target-height="417.25903" target-width="85.35986" target-x="2488.037" target-y="1990.314"></path><path d="M 2369.92 1719.80 L 2369.95 1747.26 L 2748.63 1773.79 L 2742.23 1719.80 L 2369.92 1719.80 Z" fill="#ffffff" fill-rule="nonzero" id="path927-2-2" node-id="51" stroke="none" target-height="53.98401" target-width="378.71094" target-x="2369.918" target-y="1719.802"></path><path d="M 2392.79 2978.08 L 2488.45 2979.19 L 2483.45 3015.16 C 2483.45 3015.16 2391.59 3009.17 2391.38 3008.13 C 2391.16 3007.10 2392.79 2978.08 2392.79 2978.08 Z" fill="#ffffff" fill-rule="nonzero" id="path915-1-63" node-id="52" stroke="none" target-height="37.07202" target-width="97.07617" target-x="2391.379" target-y="2978.084"></path><path d="M 2232.52 3100.54 L 2492.97 3100.54 L 2483.45 3015.16 L 2452.43 3006.67 C 2431.31 2986.28 2392.66 2981.28 2366.28 3011.33 C 2366.28 3011.33 2317.99 3046.07 2294.44 3046.66 C 2246.73 3046.66 2228.89 3055.79 2232.52 3100.54 Z" fill="#3d3d3d" fill-rule="nonzero" id="path929-4-3" node-id="53" stroke="none" target-height="110.45068" target-width="260.87427" target-x="2232.0957" target-y="2990.0874"></path><path d="M 2776.30 3015.16 L 2765.78 2948.52 L 2837.42 2948.52 L 2856.44 2948.52 L 2868.62 3042.41 L 2776.30 3015.16 Z" fill="#f6c6c0" fill-rule="nonzero" id="path924-1-6" node-id="54" stroke="none" target-height="93.88916" target-width="102.84619" target-x="2765.775" target-y="2948.523"></path><path d="M 2860.56 2978.08 L 2770.60 2979.19 L 2776.30 3015.16 C 2776.30 3015.16 2868.17 3009.17 2868.37 3008.13 C 2868.59 3007.10 2860.56 2978.08 2860.56 2978.08 L 2860.56 2978.08 Z" fill="#ffffff" fill-rule="nonzero" id="path926-9-2" node-id="55" stroke="none" target-height="37.07202" target-width="97.77515" target-x="2770.598" target-y="2978.084"></path><path d="M 2959.67 3100.54 L 2772.56 3100.54 L 2776.30 3015.16 L 2807.32 3006.67 C 2828.43 2986.28 2860.56 2978.08 2878.27 3008.11 C 2901.24 3067.60 2963.38 3042.93 2959.67 3100.54 L 2959.67 3100.54 Z" fill="#3d3d3d" fill-rule="nonzero" id="path928-0-7" node-id="56" stroke="none" target-height="112.10303" target-width="187.24902" target-x="2772.564" target-y="2988.435"></path><path d="M 2059.67 1192.20 C 2050.99 1122.52 1999.05 1175.11 1999.05 1203.62 C 1999.05 1203.62 1982.28 1166.77 1975.88 1153.90 C 1968.38 1144.69 1956.06 1136.97 1936.32 1141.25 C 1882.52 1152.79 1842.51 1241.27 1865.44 1295.65 C 1873.83 1312.30 1952.07 1383.51 1952.07 1383.51 L 1953.68 1386.01 L 2036.30 1345.52 C 2036.33 1334.61 2039.73 1322.01 2043.14 1301.93 C 2083.30 1283.70 2074.32 1257.99 2059.67 1192.20 L 2059.67 1192.20 Z" fill="#f6cdc1" fill-rule="nonzero" id="path35509-3-6" node-id="57" stroke="none" target-height="245.96619" target-width="213.14526" target-x="1858.8828" target-y="1140.0468"></path><path d="M 2481.00 1402.46 L 2759.45 1330.46 L 2738.99 1234.54 L 2481.00 1402.46 Z" fill="#3362c4" fill-rule="nonzero" id="path11379-41" node-id="58" stroke="none" target-height="167.92102" target-width="278.4502" target-x="2481.004" target-y="1234.536"></path><path d="M 2758.29 1524.23 L 2646.91 1540.21 C 2646.91 1540.21 2742.23 1719.80 2742.23 1719.80 L 2758.29 1524.23 Z" fill="#3362c4" fill-rule="nonzero" id="path11381-0" node-id="59" stroke="none" target-height="195.57507" target-width="111.38794" target-x="2646.906" target-y="1524.226"></path><path d="M 2284.20 1601.45 C 2250.39 1625.45 2164.43 1563.09 2122.97 1562.63 C 2081.51 1562.17 1994.18 1622.60 1960.91 1597.85 C 1927.64 1573.11 1960.38 1472.09 1948.01 1432.52 C 1935.64 1392.95 1851.18 1328.56 1864.43 1289.28 C 1877.68 1249.99 1983.88 1249.91 2017.69 1225.92 C 2051.50 1201.92 2086.63 1101.70 2128.09 1102.17 C 2169.55 1102.63 2202.44 1203.60 2235.71 1228.34 C 2268.98 1253.09 2375.15 1255.53 2387.52 1295.10 C 2399.89 1334.67 2314.02 1397.16 2300.77 1436.44 C 2287.53 1475.73 2318.01 1577.46 2284.20 1601.45 Z" fill="#a5a3ff" fill-rule="nonzero" id="path8967" node-id="60" stroke="none" target-height="504.76465" target-width="525.6715" target-x="1863.056" target-y="1102.166"></path><path d="M 2203.92 1478.72 C 2188.89 1489.39 2150.66 1461.66 2132.23 1461.45 C 2113.79 1461.25 2074.96 1488.12 2060.17 1477.12 C 2045.37 1466.12 2059.93 1421.19 2054.43 1403.60 C 2048.93 1386.00 2011.38 1357.37 2017.27 1339.90 C 2023.16 1322.43 2070.38 1322.40 2085.41 1311.73 C 2100.45 1301.06 2116.07 1256.50 2134.51 1256.70 C 2152.94 1256.91 2167.57 1301.81 2182.36 1312.81 C 2197.16 1323.81 2244.37 1324.90 2249.87 1342.49 C 2255.37 1360.09 2217.18 1387.87 2211.29 1405.34 C 2205.40 1422.81 2218.96 1468.05 2203.92 1478.72 Z" fill="#f2f4ff" fill-rule="nonzero" id="path9492" node-id="61" stroke="none" target-height="224.4552" target-width="233.7301" target-x="2016.6525" target-y="1256.701"></path><path d="M 2354.60 1358.66 C 2350.73 1375.36 2318.37 1403.23 2314.15 1402.88 C 2283.20 1407.22 2260.54 1410.17 2228.91 1412.21 C 2217.52 1415.61 2205.67 1424.03 2202.05 1443.90 C 2192.09 1498.03 2258.47 1568.89 2317.49 1568.56 C 2336.09 1567.20 2431.85 1522.22 2431.85 1522.22 L 2434.78 1521.69 L 2429.05 1429.86 C 2418.99 1425.64 2408.65 1417.68 2391.41 1406.84 C 2372.19 1394.81 2399.24 1366.13 2354.60 1358.66 L 2354.60 1358.66 Z" fill="#f6cdc1" fill-rule="nonzero" id="path35485-2-1" node-id="62" stroke="none" target-height="209.901" target-width="233.72485" target-x="2201.0552" target-y="1358.658"></path><path d="M 2433.57 1523.44 L 2391.41 1406.84 L 2430.77 1431.08 L 2436.50 1522.91 L 2433.57 1523.44 Z" fill="#f69cb3" fill-rule="nonzero" id="path35489-7-6" node-id="63" stroke="none" target-height="116.60498" target-width="45.091064" target-x="2391.405" target-y="1406.839"></path><path d="M 2438.00 1547.04 L 2429.53 1411.26 L 2481.00 1402.46 L 2488.02 1543.88 L 2438.00 1547.04 Z" fill="#ffffff" fill-rule="nonzero" id="path35487-9-07" node-id="64" stroke="none" target-height="144.58691" target-width="58.489014" target-x="2429.533" target-y="1402.457"></path><path d="M 1999.36 1209.82 C 1999.51 1205.99 1999.05 1203.62 1999.05 1203.62 L 1975.88 1153.90 C 1968.38 1144.69 1956.06 1136.97 1936.32 1141.25 C 1882.51 1152.79 1842.51 1241.27 1865.43 1295.65 C 1911.03 1327.04 1928.40 1270.88 1966.73 1252.25 C 1994.29 1238.86 1998.93 1219.60 1999.36 1209.82 L 1999.36 1209.82 Z" fill="#f6cdc1" fill-rule="nonzero" id="path35511-7-4" node-id="65" stroke="none" target-height="164.94714" target-width="140.47424" target-x="1858.8807" target-y="1140.0477"></path><path d="M 2117.15 2125.79 C 2036.98 2125.79 1972.45 2190.32 1972.45 2270.48 L 1972.45 3100.54 L 2440.45 3100.54 L 2440.45 2270.48 C 2440.45 2190.32 2375.91 2125.79 2295.75 2125.79 L 2117.15 2125.79 Z" fill="#b7bbff" fill-rule="nonzero" id="path8222" node-id="66" stroke="none" target-height="974.751" target-width="467.99707" target-x="1972.449" target-y="2125.787"></path><path d="M 2818.02 1908.74 C 2737.85 1908.74 2673.32 1973.27 2673.32 2053.44 L 2673.32 3100.54 L 3141.32 3100.54 L 3141.32 2053.44 C 3141.32 1973.28 3076.78 1908.74 2996.62 1908.74 L 2818.02 1908.74 Z" fill="#a5a3ff" fill-rule="nonzero" id="path8224" node-id="67" stroke="none" target-height="1191.7981" target-width="467.99585" target-x="2673.319" target-y="1908.74"></path><path d="M 3462.61 1641.05 C 3382.45 1641.05 3317.91 1705.58 3317.91 1785.75 L 3317.91 3100.54 L 3785.91 3100.54 L 3785.91 1785.75 C 3785.91 1705.58 3721.38 1641.05 3641.21 1641.05 L 3462.61 1641.05 Z" fill="#a5a3ff" fill-rule="nonzero" id="path8234" node-id="68" stroke="none" target-height="1459.488" target-width="467.99585" target-x="3317.914" target-y="1641.05"></path><path d="M 1024.42 2460.22 C 990.61 2484.21 904.64 2421.86 863.18 2421.39 C 821.73 2420.93 734.40 2481.36 701.13 2456.62 C 667.86 2431.88 700.60 2330.85 688.23 2291.28 C 675.86 2251.71 591.40 2187.33 604.65 2148.05 C 617.90 2108.76 724.10 2108.68 757.91 2084.68 C 791.72 2060.69 826.85 1960.47 868.31 1960.93 C 909.76 1961.39 942.66 2062.37 975.93 2087.11 C 1009.20 2111.85 1115.37 2114.30 1127.74 2153.87 C 1140.11 2193.44 1054.24 2255.92 1040.99 2295.21 C 1027.74 2334.49 1058.23 2436.22 1024.42 2460.22 Z" fill="#b7bbff" fill-rule="nonzero" id="path8238" node-id="69" stroke="none" target-height="504.76282" target-width="525.6722" target-x="603.27386" target-y="1960.933"></path><path d="M 1706.32 1767.02 C 1672.51 1791.02 1586.55 1728.66 1545.09 1728.20 C 1503.63 1727.74 1416.30 1788.17 1383.03 1763.43 C 1349.77 1738.68 1382.51 1637.66 1370.13 1598.09 C 1357.76 1558.52 1273.30 1494.14 1286.55 1454.85 C 1299.80 1415.57 1406.00 1415.48 1439.81 1391.49 C 1473.62 1367.50 1508.76 1267.28 1550.21 1267.74 C 1591.67 1268.20 1624.56 1369.18 1657.83 1393.92 C 1691.10 1418.66 1797.27 1421.10 1809.64 1460.67 C 1822.02 1500.24 1736.15 1562.73 1722.90 1602.02 C 1709.65 1641.30 1740.13 1743.03 1706.32 1767.02 L 1706.32 1767.02 Z" fill="#b7bbff" fill-rule="nonzero" id="path8240" node-id="70" stroke="none" target-height="504.76392" target-width="525.672" target-x="1285.1779" target-y="1267.739"></path><path d="M 3065.64 1646.80 C 3031.82 1670.79 2945.86 1608.44 2904.40 1607.97 C 2862.95 1607.51 2775.62 1667.94 2742.35 1643.20 C 2709.08 1618.46 2741.82 1517.43 2729.45 1477.86 C 2717.07 1438.29 2632.62 1373.91 2645.87 1334.63 C 2659.12 1295.34 2765.32 1295.26 2799.13 1271.27 C 2832.94 1247.27 2868.07 1147.05 2909.53 1147.51 C 2950.99 1147.97 2983.88 1248.95 3017.15 1273.69 C 3050.41 1298.43 3156.59 1300.88 3168.96 1340.45 C 3181.33 1380.02 3095.46 1442.50 3082.21 1481.79 C 3068.96 1521.08 3099.45 1622.80 3065.64 1646.80 L 3065.64 1646.80 Z" fill="#a5a3ff" fill-rule="nonzero" id="path8244" node-id="71" stroke="none" target-height="504.76294" target-width="525.67285" target-x="2644.493" target-y="1147.514"></path><path d="M 3710.23 1406.35 C 3676.42 1430.35 3590.45 1367.99 3549.00 1367.53 C 3507.54 1367.07 3420.21 1427.50 3386.94 1402.76 C 3353.67 1378.02 3386.41 1276.99 3374.04 1237.42 C 3361.67 1197.85 3277.21 1133.47 3290.46 1094.18 C 3303.71 1054.90 3409.91 1054.82 3443.72 1030.82 C 3477.53 1006.83 3512.66 906.61 3554.12 907.07 C 3595.58 907.53 3628.47 1008.51 3661.74 1033.25 C 3695.01 1057.99 3801.18 1060.43 3813.55 1100.00 C 3825.92 1139.57 3740.05 1202.06 3726.81 1241.35 C 3713.55 1280.63 3744.04 1382.36 3710.23 1406.35 L 3710.23 1406.35 Z" fill="#a5a3ff" fill-rule="nonzero" id="path8246" node-id="72" stroke="none" target-height="504.76288" target-width="525.6741" target-x="3289.0867" target-y="907.07"></path><path d="M 861.91 3100.54 L 3315.60 2466.20 L 3315.60 2270.83 L 3736.93 2462.83 L 3315.03 2882.70 L 3315.60 2661.98 L 2492.97 3100.54 L 861.91 3100.54 Z" fill="#f2f4ff" fill-rule="nonzero" id="path9001" node-id="73" stroke="none" target-height="829.708" target-width="2875.012" target-x="861.914" target-y="2270.83"></path><path d="M 1632.65 1378.99 C 1632.53 1376.04 1632.90 1374.21 1632.90 1374.21 L 1650.76 1335.88 C 1656.53 1328.78 1666.04 1322.83 1681.26 1326.13 C 1722.74 1335.03 1753.58 1403.24 1735.90 1445.16 C 1700.76 1469.36 1687.36 1426.07 1657.81 1411.70 C 1636.56 1401.38 1632.99 1386.53 1632.66 1378.99 L 1632.65 1378.99 Z" fill="#f6cdc1" fill-rule="nonzero" id="path5738-8" node-id="74" stroke="none" target-height="127.16577" target-width="108.33179" target-x="1632.648" target-y="1325.2041"></path><path d="M 960.54 1460.57 C 942.31 1594.81 1136.00 1682.94 1309.31 1710.29 C 1311.88 1711.65 1365.12 1753.29 1376.25 1756.29 C 1387.67 1759.37 1410.16 1771.43 1434.92 1764.67 C 1487.61 1730.98 1482.49 1650.23 1465.59 1670.14 C 1425.83 1671.71 1374.22 1641.68 1374.22 1641.68 C 1374.22 1641.68 1376.86 1605.55 1370.60 1605.55 C 1349.22 1605.55 1323.33 1631.35 1321.95 1631.88 C 1320.66 1632.38 1319.40 1632.83 1318.18 1633.23 C 1229.54 1606.58 1189.49 1536.26 1098.58 1484.32 C 1058.44 1478.50 993.98 1465.91 960.54 1460.57 L 960.54 1460.57 Z" fill="#f6c6c0" fill-rule="nonzero" id="path4286-4-2-8-84" node-id="75" stroke="none" target-height="306.11597" target-width="517.9031" target-x="959.353" target-y="1460.572"></path><path d="M 1098.58 1484.32 L 1116.41 1448.70 L 933.28 1414.19 L 951.26 1491.24 L 1098.58 1484.32 Z" fill="#ffffff" fill-rule="nonzero" id="path4288-5-8-9-6" node-id="76" stroke="none" target-height="77.051025" target-width="183.13098" target-x="933.282" target-y="1414.19"></path><path d="M 1617.90 1643.31 C 1602.86 1653.98 1564.64 1626.25 1546.20 1626.05 C 1527.77 1625.84 1488.94 1652.71 1474.14 1641.71 C 1459.35 1630.71 1473.91 1585.79 1468.41 1568.19 C 1462.90 1550.59 1425.35 1521.96 1431.24 1504.50 C 1437.13 1487.03 1484.36 1486.99 1499.39 1476.32 C 1514.42 1465.65 1530.05 1421.09 1548.48 1421.29 C 1566.92 1421.50 1581.54 1466.40 1596.34 1477.40 C 1611.13 1488.40 1658.34 1489.49 1663.84 1507.09 C 1669.34 1524.68 1631.16 1552.47 1625.27 1569.94 C 1619.38 1587.40 1632.93 1632.64 1617.90 1643.31 L 1617.90 1643.31 Z" fill="#f2f4ff" fill-rule="nonzero" id="path9490" node-id="77" stroke="none" target-height="224.45728" target-width="233.72925" target-x="1430.6255" target-y="1421.293"></path><path d="M 930.58 2328.82 C 915.55 2339.49 877.32 2311.76 858.89 2311.55 C 840.45 2311.35 801.62 2338.22 786.83 2327.22 C 772.03 2316.21 786.59 2271.29 781.09 2253.69 C 775.59 2236.10 738.03 2207.47 743.93 2190.00 C 749.82 2172.53 797.04 2172.50 812.08 2161.83 C 827.11 2151.16 842.73 2106.59 861.17 2106.80 C 879.60 2107.00 894.23 2151.90 909.02 2162.91 C 923.82 2173.91 971.03 2174.99 976.53 2192.59 C 982.03 2210.19 943.85 2237.97 937.95 2255.44 C 932.06 2272.91 945.62 2318.15 930.58 2328.82 L 930.58 2328.82 Z" fill="#f2f4ff" fill-rule="nonzero" id="path9524" node-id="78" stroke="none" target-height="224.45728" target-width="233.73004" target-x="743.3116" target-y="2106.798"></path><path d="M 2974.33 1524.87 C 2959.30 1535.54 2921.07 1507.81 2902.64 1507.60 C 2884.20 1507.40 2845.37 1534.27 2830.58 1523.27 C 2815.78 1512.26 2830.34 1467.34 2824.84 1449.74 C 2819.34 1432.15 2781.78 1403.52 2787.68 1386.05 C 2793.57 1368.58 2840.79 1368.55 2855.82 1357.88 C 2870.86 1347.21 2886.48 1302.64 2904.92 1302.85 C 2923.35 1303.05 2937.98 1347.95 2952.77 1358.96 C 2967.56 1369.96 3014.78 1371.04 3020.28 1388.64 C 3025.78 1406.24 2987.59 1434.02 2981.70 1451.49 C 2975.81 1468.96 2989.37 1514.19 2974.33 1524.87 L 2974.33 1524.87 Z" fill="#f2f4ff" fill-rule="nonzero" id="path9526" node-id="79" stroke="none" target-height="224.4563" target-width="233.729" target-x="2787.0605" target-y="1302.849"></path><path d="M 3621.49 1276.75 C 3606.45 1287.42 3568.23 1259.69 3549.79 1259.48 C 3531.36 1259.28 3492.52 1286.15 3477.73 1275.15 C 3462.94 1264.15 3477.49 1219.22 3471.99 1201.63 C 3466.49 1184.03 3428.94 1155.40 3434.83 1137.93 C 3440.72 1120.46 3487.94 1120.43 3502.98 1109.76 C 3518.01 1099.09 3533.63 1054.53 3552.07 1054.73 C 3570.50 1054.94 3585.13 1099.84 3599.92 1110.84 C 3614.72 1121.84 3661.93 1122.93 3667.43 1140.52 C 3672.93 1158.12 3634.75 1185.90 3628.86 1203.37 C 3622.97 1220.84 3636.52 1266.08 3621.49 1276.75 L 3621.49 1276.75 Z" fill="#f2f4ff" fill-rule="nonzero" id="path9528" node-id="80" stroke="none" target-height="224.45728" target-width="233.73047" target-x="3434.2144" target-y="1054.731"></path></svg>